<svg version="1.1" xmlns="http://www.w3.org/2000/svg" xmlns:xlink="http://www.w3.org/1999/xlink" width="19.43016" height="19.40843" viewBox="0,0,19.43016,19.40843"><g transform="translate(-230.28499,-170.26804)"><g data-paper-data="{&quot;isPaintingLayer&quot;:true}" fill-rule="nonzero" stroke="#000000" stroke-width="0.5" stroke-linecap="butt" stroke-linejoin="miter" stroke-miterlimit="10" stroke-dasharray="" stroke-dashoffset="0" style="mix-blend-mode: normal"><path d="M233.25186,180c0,-3.65613 3.02124,-6.62001 6.74814,-6.62001c3.7269,0 6.74814,2.96388 6.74814,6.62001c0,3.65613 -3.02124,6.62001 -6.74814,6.62001c-3.7269,0 -6.74814,-2.96388 -6.74814,-6.62001z" fill="#000000"/><path d="M234.70797,175.86022l3.76059,-5.29616l2.90123,-0.04406l3.9025,5.40472c0,0 -3.58221,0.03596 -5.36786,0.01027c-1.74974,-0.02517 -5.19646,-0.07476 -5.19646,-0.07476z" fill="#000000"/><path d="M245.22603,184.0737l-3.75231,5.30203l-2.90116,0.0486l-3.91094,-5.39862c0,0 3.58214,-0.04155 5.36784,-0.01865c1.74978,0.02244 5.19657,0.06664 5.19657,0.06664z" fill="#000000"/><path d="M235.92653,185.28884l-5.32345,-3.72186l-0.06523,-2.90083l5.37611,-3.94182c0,0 0.06208,3.58185 0.04942,5.36765c-0.01241,1.74988 -0.03685,5.19686 -0.03685,5.19686z" fill="#000000"/><path d="M244.06307,174.71115l5.32926,3.71353l0.06976,2.90072l-5.36994,3.95022c0,0 -0.06768,-3.58175 -0.05781,-5.36756c0.00967,-1.7499 0.02873,-5.19691 0.02873,-5.19691z" fill="#000000"/><path d="M233.3461,180.79932l-1.052,-6.40973l2.03129,-2.07194l6.5755,1.09695c0,0 -2.52105,2.54516 -3.80841,3.78286c-1.26147,1.21282 -3.74637,3.60187 -3.74637,3.60187z" fill="#000000"/><path d="M246.59972,179.23966l1.06202,6.40808l-2.02804,2.07512l-6.57721,-1.08667c0,0 2.51707,-2.54909 3.80249,-3.78881c1.25958,-1.21479 3.74074,-3.60772 3.74074,-3.60772z" fill="#000000"/><path d="M240.84406,186.64437l-6.40188,1.09873l-2.08671,-2.01611l1.04896,-6.58333c0,0 2.56348,2.50242 3.81054,3.78072c1.22198,1.25259 3.6291,3.71999 3.6291,3.71999z" fill="#000000"/><path d="M239.18776,173.40249l6.40016,-1.10874l2.08986,2.01286l-1.03866,6.58496c0,0 -2.56739,-2.4984 -3.81645,-3.77475c-1.22394,-1.25068 -3.63491,-3.71432 -3.63491,-3.71432z" fill="#000000"/><path d="M235.32672,180c0,-2.53197 2.09229,-4.58454 4.67328,-4.58454c2.58098,0 4.67328,2.05257 4.67328,4.58454c0,2.53197 -2.09229,4.58454 -4.67328,4.58454c-2.58098,0 -4.67328,-2.05257 -4.67328,-4.58454z" fill="#ffffff"/></g></g></svg>